<?xml version="1.0" standalone="no"?>
<!DOCTYPE svg PUBLIC "-//W3C//DTD SVG 1.1//EN" "http://www.w3.org/Graphics/SVG/1.1/DTD/svg11.dtd" >
<svg xmlns="http://www.w3.org/2000/svg">
<metadata>Generated by IcoMoon</metadata>
<defs>
<font id="icomoon: 2014" horiz-adv-x="512">
<font-face units-per-em="512" ascent="480" descent="-32" />
<missing-glyph horiz-adv-x="512" />
<glyph unicode="&#x20;" d="" horiz-adv-x="256" />
<glyph unicode="&#xe600;" d="M513.002 159.953l-256.501 199.102-256.501-199.103v81.178l256.501 199.102 256.501-199.103zM448.877 167.189v-192.375h-128.25v128.25h-128.25v-128.25h-128.25v192.375l192.375 144.282z" />
<glyph unicode="&#xe601;" d="M160.313 263.377h64.125v-64.125h-64.125zM256.501 263.377h64.125v-64.125h-64.125zM352.689 263.377h64.125v-64.125h-64.125zM64.125 71.001h64.125v-64.125h-64.125zM160.313 71.001h64.125v-64.125h-64.125zM256.501 71.001h64.125v-64.125h-64.125zM160.313 167.189h64.125v-64.125h-64.125zM256.501 167.189h64.125v-64.125h-64.125zM352.689 167.189h64.125v-64.125h-64.125zM64.125 167.189h64.125v-64.125h-64.125zM416.814 455.752v-32.063h-64.125v32.063h-224.439v-32.063h-64.125v32.063h-64.125v-513.002h480.94v513.002h-64.125zM448.877-25.187h-416.814v352.689h416.814v-352.689z" />
<glyph unicode="&#xe602;" d="M450.127 455.752l33.688-286.339-37.814-4.449-30.085 255.719h-318.83l-30.085-255.719-37.814 4.449 33.687 286.339zM128.25 391.627h256.501v-32.063h-256.501zM128.25 327.502h256.501v-32.063h-256.501zM128.25 263.377h256.501v-32.063h-256.501zM128.25 199.252h256.501v-32.063h-256.501zM496.971 135.127h-480.94c-8.817 0-13.75-6.844-10.961-15.209l53.986-161.958c2.788-8.365 12.284-15.208 21.101-15.208h352.689c8.817 0 18.312 6.843 21.101 15.208l53.986 161.959c2.788 8.365-2.145 15.207-10.962 15.207zM320.626 71.001h-128.25v32.063h128.25v-32.063z" />
<glyph unicode="&#xe603;" d="M368.216 52.277c-9.495 1.497-9.711 27.38-9.711 27.38s27.899 27.382 33.978 64.202c16.358 0 26.459 39.146 10.101 52.918 0.683 14.498 21.025 113.81-81.959 113.81s-82.641-99.312-81.959-113.81c-16.359-13.772-6.256-52.918 10.101-52.918 6.079-36.82 33.979-64.202 33.979-64.202s-0.216-25.884-9.711-27.38c-30.584-4.825-144.786-54.765-144.786-109.527h384.752c0 54.762-114.202 104.702-144.786 109.527zM172.363 43.543c22.090 13.601 48.909 26.205 70.907 33.778-7.892 11.238-16.679 26.52-22.208 44.618-7.718 6.296-14 15.296-18.034 26.353-4.041 11.074-5.572 23.472-4.313 34.91 0.904 8.212 3.245 15.864 6.839 22.588-2.179 23.339-3.714 69.152 26.275 102.567 11.63 12.959 26.33 22.274 43.936 27.897-3.143 32.444-19.618 70.523-83.39 70.523-102.983 0-82.641-99.312-81.959-113.811-16.359-13.772-6.256-52.917 10.1-52.917 6.079-36.82 33.979-64.202 33.979-64.202s-0.216-25.884-9.711-27.38c-30.584-4.827-144.786-54.766-144.786-109.528h165.12c2.359 1.54 4.762 3.076 7.243 4.604z" />
<glyph unicode="&#xe604;" d="M488.955-57.25h-336.658c-13.281 0-24.047 10.766-24.047 24.047 0 34.498 14.563 76.251 38.955 111.689 20.386 29.617 45.43 51.911 72.481 64.932-11.923 10.843-22.19 24.060-30.313 39.137-13.025 24.178-19.912 52.126-19.912 80.822 0 39.881 13.127 77.563 36.965 106.102 24.881 29.788 58.335 46.194 94.2 46.194s69.32-16.406 94.201-46.195c23.837-28.54 36.965-66.221 36.965-106.102 0-28.696-6.885-56.643-19.911-80.822-8.123-15.077-18.391-28.294-30.314-39.137 27.050-13.021 52.094-35.315 72.481-64.932 24.392-35.437 38.954-77.19 38.954-111.688 0-13.281-10.766-24.047-24.047-24.047zM179.387-9.156h282.478c-4.622 19.709-14.288 41.272-27.435 60.373-20.767 30.172-46.679 49.909-72.962 55.572-11.075 2.387-18.981 12.179-18.981 23.508v17.18c0 8.647 4.642 16.627 12.159 20.902 29.797 16.949 49.052 54.239 49.052 94.998 0 57.458-37.265 104.204-83.071 104.204s-83.071-46.745-83.071-104.204c0-40.76 19.254-78.048 49.053-94.998 7.515-4.276 12.158-12.255 12.158-20.902v-17.18c0-11.329-7.908-21.122-18.981-23.508-26.282-5.663-52.194-25.399-72.963-55.572-13.149-19.101-22.813-40.664-27.435-60.373zM98.75 22.907h-47.613c4.623 19.709 14.287 41.272 27.433 60.373 20.769 30.172 46.68 49.909 72.963 55.572 11.075 2.387 18.981 12.179 18.981 23.508v17.18c0 8.647-4.642 16.627-12.157 20.902-29.798 16.95-49.053 54.239-49.053 94.998 0 57.458 37.265 104.204 83.071 104.204 3.133 0 6.225-0.226 9.269-0.652 13.205 14.695 28.172 26.639 44.407 35.572-16.629 8.633-34.818 13.174-53.676 13.174-35.865 0-69.32-16.406-94.201-46.195-23.837-28.54-36.964-66.221-36.964-106.102 0-28.696 6.886-56.643 19.912-80.822 8.123-15.077 18.391-28.293 30.313-39.137-27.050-13.021-52.094-35.315-72.481-64.932-24.392-35.437-38.955-77.19-38.955-111.688 0-13.281 10.766-24.047 24.047-24.047h66.323c0.74 15.543 3.606 31.768 8.38 48.094z" />
<glyph unicode="&#xe605;" d="M192.375 391.627c0 35.415 28.71 64.125 64.125 64.125s64.125-28.71 64.125-64.125c0-35.415-28.71-64.125-64.125-64.125s-64.125 28.71-64.125 64.125zM328.406 335.283c0 35.415 28.71 64.125 64.125 64.125s64.125-28.71 64.125-64.125c0-35.415-28.71-64.125-64.125-64.125s-64.125 28.71-64.125 64.125zM416.814 199.252c0 17.707 14.355 32.063 32.063 32.063s32.063-14.355 32.063-32.063c0-17.707-14.355-32.063-32.063-32.063s-32.063 14.355-32.063 32.063zM360.469 63.221c0 17.707 14.355 32.063 32.063 32.063s32.063-14.355 32.063-32.063c0-17.707-14.355-32.063-32.063-32.063s-32.063 14.355-32.063 32.063zM224.44 6.876c0 0 0 0 0 0 0 17.707 14.355 32.063 32.063 32.063s32.063-14.355 32.063-32.063c0 0 0 0 0 0 0-17.707-14.355-32.063-32.063-32.063s-32.063 14.355-32.063 32.063zM88.409 63.221c0 0 0 0 0 0 0 17.707 14.355 32.063 32.063 32.063s32.063-14.355 32.063-32.063c0 0 0 0 0 0 0-17.707-14.355-32.063-32.063-32.063s-32.063 14.355-32.063 32.063zM72.377 335.283c0 0 0 0 0 0 0 26.562 21.532 48.094 48.094 48.094 26.561 0 48.094-21.532 48.094-48.094 0 0 0 0 0 0 0-26.561-21.532-48.094-48.094-48.094s-48.094 21.532-48.094 48.094zM28.055 199.252c0 19.921 16.148 36.071 36.071 36.071s36.070-16.15 36.070-36.071c0-19.921-16.15-36.070-36.071-36.070s-36.071 16.149-36.071 36.070z" />
<glyph unicode="&#xe606;" d="M182.217 94.020l20.69 28.964-22.672 22.673-28.965-20.688c-5.371 3.003-11.124 5.397-17.167 7.11l-5.852 35.111h-32.063l-5.852-35.111c-6.043-1.712-11.795-4.107-17.166-7.11l-28.965 20.69-22.672-22.673 20.69-28.964c-3.003-5.37-5.398-11.125-7.11-17.166l-35.111-5.853v-32.063l35.111-5.853c1.712-6.042 4.107-11.795 7.11-17.166l-20.689-28.964 22.671-22.673 28.965 20.688c5.371-3.003 11.124-5.397 17.166-7.11l5.853-35.111h32.063l5.851 35.111c6.043 1.712 11.795 4.107 17.167 7.11l28.965-20.688 22.672 22.673-20.69 28.964c3.003 5.37 5.398 11.125 7.11 17.166l35.113 5.851v32.063l-35.112 5.853c-1.713 6.042-4.107 11.795-7.11 17.166zM112.219 22.907c-17.709 0-32.063 14.355-32.063 32.063s14.354 32.063 32.063 32.063 32.063-14.355 32.063-32.063-14.354-32.063-32.063-32.063zM513.002 263.377v32.063l-33.757 6.137c-0.622 4.031-1.419 8.005-2.366 11.918l28.836 18.587-12.27 29.622-33.538-7.248c-2.111 3.462-4.372 6.823-6.759 10.084l19.541 28.226-22.673 22.671-28.226-19.541c-3.262 2.387-6.623 4.647-10.084 6.76l7.248 33.538-29.622 12.271-18.587-28.836c-3.913 0.948-7.887 1.745-11.918 2.366l-6.138 33.757h-32.063l-6.138-33.757c-4.031-0.622-8.003-1.419-11.918-2.366l-18.586 28.836-29.622-12.27 7.248-33.537c-3.462-2.112-6.823-4.373-10.084-6.76l-28.226 19.541-22.672-22.671 19.541-28.226c-2.387-3.262-4.648-6.623-6.76-10.084l-33.537 7.248-12.27-29.622 28.835-18.587c-0.948-3.913-1.744-7.887-2.367-11.918l-33.758-6.138v-32.063l33.757-6.137c0.622-4.031 1.419-8.005 2.367-11.919l-28.835-18.587 12.27-29.622 33.537 7.248c2.112-3.462 4.373-6.822 6.76-10.084l-19.541-28.226 22.672-22.673 28.226 19.541c3.262-2.387 6.623-4.647 10.085-6.759l-7.248-33.538 29.622-12.27 18.587 28.836c3.913-0.948 7.887-1.745 11.918-2.366l6.138-33.758h32.063l6.138 33.757c4.030 0.622 8.003 1.419 11.918 2.366l18.587-28.836 29.622 12.27-7.248 33.538c3.462 2.112 6.824 4.372 10.084 6.759l28.226-19.541 22.673 22.673-19.541 28.226c2.387 3.262 4.647 6.623 6.759 10.084l33.538-7.248 12.27 29.623-28.836 18.587c0.948 3.913 1.745 7.887 2.366 11.918l33.757 6.137zM336.658 209.672c-38.514 0-69.736 31.222-69.736 69.736s31.221 69.736 69.736 69.736 69.736-31.222 69.736-69.736c0-38.514-31.221-69.736-69.736-69.736z" />
<glyph unicode="&#xe607;" d="M513.002 151.111v96.282l-73.531 12.255c-2.985 9.084-6.624 17.869-10.868 26.301l43.312 60.636-68.081 68.082-60.531-43.237c-8.471 4.286-17.303 7.96-26.435 10.973l-12.225 73.351h-96.282l-12.225-73.352c-9.133-3.013-17.964-6.687-26.434-10.972l-60.532 43.236-68.082-68.082 43.312-60.636c-4.243-8.432-7.882-17.216-10.867-26.3l-73.531-12.254v-96.282l73.703-12.284c2.986-9.002 6.618-17.709 10.842-26.066l-43.459-60.843 68.082-68.081 60.946 43.532c8.317-4.183 16.978-7.779 25.933-10.738l12.313-73.88h96.282l12.313 73.882c8.954 2.959 17.615 6.555 25.933 10.737l60.945-43.531 68.081 68.081-43.457 60.842c4.224 8.358 7.854 17.065 10.841 26.067l73.703 12.283zM256.501 135.127c-35.415 0-64.125 28.709-64.125 64.125 0 35.415 28.71 64.125 64.125 64.125 35.416 0 64.125-28.71 64.125-64.125 0-35.416-28.709-64.125-64.125-64.125z" />
<glyph unicode="&#xe608;" d="M224.439 167.189v224.439c-123.954 0-224.439-100.485-224.439-224.439s100.484-224.439 224.439-224.439 224.439 100.485 224.439 224.438c0 36.087-8.531 70.179-23.664 100.387l-200.774-100.387zM457.275 331.702c-36.848 73.552-112.908 124.052-200.774 124.052v-224.439l200.774 100.387z" />
<glyph unicode="&#xe609;" d="M64.125 6.876h448.877v-64.125h-513.002v513.002h64.125zM144.282 38.938c-26.562 0-48.094 21.532-48.094 48.094s21.532 48.094 48.094 48.094c1.417 0 2.816-0.074 4.202-0.193l51.697 86.161c-4.929 7.549-7.805 16.564-7.805 26.252 0 26.562 21.532 48.094 48.094 48.094s48.094-21.532 48.094-48.094c0-9.69-2.875-18.702-7.805-26.252l51.697-86.161c1.385 0.119 2.786 0.193 4.202 0.193 1.070 0 2.128-0.047 3.181-0.115l85.344 149.352c-5.279 7.719-8.37 17.052-8.37 27.108 0 26.562 21.532 48.094 48.094 48.094s48.094-21.532 48.094-48.094c0-26.562-21.532-48.094-48.094-48.094-1.072 0-2.128 0.047-3.181 0.116l-85.344-149.353c5.279-7.718 8.37-17.051 8.37-27.108 0-26.562-21.532-48.094-48.094-48.094s-48.094 21.532-48.094 48.094c0 9.689 2.875 18.702 7.804 26.252l-51.696 86.161c-1.386-0.119-2.786-0.193-4.202-0.193s-2.816 0.073-4.202 0.193l-51.697-86.161c4.929-7.548 7.805-16.563 7.805-26.252 0-26.562-21.532-48.094-48.094-48.094z" />
<glyph unicode="&#xe60a;" d="M0 38.938h513.002v-64.125h-513.002zM64.125 167.189h64.125v-96.188h-64.125zM160.313 295.44h64.125v-224.439h-64.125zM256.501 199.252h64.125v-128.25h-64.125zM352.689 391.627h64.125v-320.626h-64.125z" />
<glyph unicode="&#xe60b;" d="M416.814 359.565v64.125h-320.626v-64.125h-96.188v-64.125c0-53.123 43.063-96.188 96.188-96.188 10.058 0 19.754 1.546 28.867 4.409 23.132-33.069 58.418-57.010 99.384-65.325v-99.397h-32.063c-35.416 0-64.125-28.709-64.125-64.125h256.501c0 35.416-28.709 64.125-64.125 64.125h-32.063v99.397c40.966 8.316 76.252 32.256 99.384 65.326 9.113-2.863 18.808-4.409 28.866-4.409 53.125 0 96.188 43.065 96.188 96.188v64.125h-96.188zM96.188 237.326c-32.044 0-58.114 26.070-58.114 58.114v32.063h58.114v-32.063c0-20.132 3.722-39.393 10.498-57.145-3.407-0.624-6.912-0.968-10.498-0.968zM474.928 295.44c0-32.043-26.070-58.113-58.113-58.113-3.585 0-7.090 0.344-10.498 0.968 6.775 17.753 10.498 37.013 10.498 57.145v32.063h58.113v-32.063z" />
<glyph unicode="&#xe60c;" d="M96.188-57.25h320.626l32.063 352.689h-384.752zM320.626 391.627v64.125h-128.25v-64.125h-160.313v-96.188l32.063 32.063h384.752l32.063-32.063v96.188h-160.313zM288.563 391.627h-64.125v32.063h64.125v-32.063z" />
<glyph unicode="&#xe60d;" d="M400.783 391.627h-288.563c-26.562 0-48.094-21.532-48.094-48.094v-16.031h384.752v16.031c0 26.562-21.532 48.094-48.094 48.094zM316.779 423.69l7.072-50.599h-134.699l7.071 50.599h120.556zM320.626 455.752h-128.25c-13.226 0-25.545-10.717-27.375-23.815l-9.375-67.093c-1.831-13.099 7.493-23.815 20.719-23.815h160.313c13.226 0 22.549 10.717 20.719 23.815l-9.375 67.093c-1.83 13.099-14.149 23.815-27.375 23.815v0zM408.798 295.44h-304.595c-17.635 0-30.756-14.369-29.16-31.931l26.257-288.827c1.596-17.562 17.331-31.931 34.965-31.931h240.47c17.635 0 33.369 14.369 34.966 31.93l26.257 288.827c1.597 17.563-11.524 31.931-29.159 31.931zM192.375 6.876h-48.094l-16.031 224.439h64.125v-224.439zM288.563 6.876h-64.125v224.439h64.125v-224.439zM368.72 6.876h-48.094v224.439h64.125l-16.031-224.439z" />
<glyph unicode="&#xe60e;" d="M224.439 57.72l-102.828 118.859 29.311 29.313 73.516-57.484 137.641 121.61 29.313-29.311zM416.7 391.627c0.039-0.033 0.081-0.075 0.114-0.115v-384.522c-0.033-0.039-0.075-0.081-0.114-0.114h-320.398c-0.040 0.033-0.081 0.075-0.114 0.114v384.523c0.033 0.040 0.075 0.081 0.115 0.114h-64.24v-384.752c0-35.269 28.856-64.125 64.125-64.125h320.626c35.269 0 64.125 28.856 64.125 64.125v384.752h-64.24zM320.626 391.627v32.063c0 17.707-14.355 32.063-32.063 32.063h-64.125c-17.708 0-32.063-14.355-32.063-32.063v-32.063h-64.125v-64.125h256.501v64.125h-64.125zM288.563 391.627h-64.125v32.063h64.125v-32.063z" />
<glyph unicode="&#xe60f;" d="M488.955 71.001h-8.015v104.204c0 30.938-25.17 56.109-56.109 56.109h-136.266v64.125h8.015c13.226 0 24.047 10.821 24.047 24.047v80.156c0 13.226-10.821 24.047-24.047 24.047h-80.156c-13.226 0-24.047-10.821-24.047-24.047v-80.156c0-13.226 10.821-24.047 24.047-24.047h8.016v-64.125h-136.266c-30.939 0-56.109-25.171-56.109-56.109v-104.204h-8.015c-13.226 0-24.047-10.821-24.047-24.047v-80.157c0-13.226 10.821-24.047 24.047-24.047h80.156c13.226 0 24.047 10.821 24.047 24.047v80.156c0 13.226-10.821 24.047-24.047 24.047h-8.016v96.188h128.25v-96.188h-8.016c-13.226 0-24.047-10.821-24.047-24.047v-80.156c0-13.226 10.821-24.047 24.047-24.047h80.156c13.226 0 24.047 10.821 24.047 24.047v80.156c0 13.226-10.821 24.047-24.047 24.047h-8.015v96.188h128.25v-96.188h-8.015c-13.226 0-24.047-10.821-24.047-24.047v-80.156c0-13.226 10.821-24.047 24.047-24.047h80.156c13.226 0 24.047 10.821 24.047 24.047v80.156c0 13.226-10.821 24.047-24.047 24.047zM96.188-25.187h-64.125v64.125h64.125v-64.125zM288.563-25.187h-64.125v64.125h64.125v-64.125zM224.439 327.502v64.125h64.125v-64.125h-64.125zM480.94-25.187h-64.125v64.125h64.125v-64.125z" />
<glyph unicode="&#xe610;" d="M432.846 455.752c44.269 0 80.156-35.887 80.156-80.156 0-18.045-5.966-34.697-16.031-48.094l-32.063-32.063-112.219 112.219 32.063 32.063c13.397 10.065 30.048 16.031 48.094 16.031zM32.063 87.033l-32.063-144.282 144.282 32.063 296.579 296.579-112.219 112.219-296.579-296.579zM358.489 273.608l-224.439-224.439-27.632 27.632 224.439 224.439 27.632-27.632z" />
<glyph unicode="&#xe611;" d="M256 480c-141.385 0-256-114.615-256-256s114.615-256 256-256 256 114.615 256 256-114.615 256-256 256zM208 64l-106 138 47 49 59-75 185 151 23-23-208-240z" />
<glyph unicode="&#xe612;" d="M384.752 135.127v64.125h-160.313v64.125h160.313v64.125l96.188-96.188zM352.689 167.189v-128.25h-160.313v-96.188l-192.375 96.188v416.814h352.689v-160.313h-32.063v128.25h-256.501l128.25-64.125v-288.563h128.25v96.188z" />
<glyph unicode="&#xe613;" d="M513.002 135.127v-192.376h-513.002v192.375h64.125v-128.25h384.752v128.25zM96.188 103.064h320.626v-64.125h-320.626zM103.778 172.466l13.876 62.605 313.027-69.383-13.876-62.605zM140.102 301.172l27.099 58.116 290.583-135.496-27.099-58.116zM496.832 274.661l-39.037-50.875-254.37 195.185 28.223 36.781h29.179z" />
<glyph unicode="&#xe614;" d="M480.94 327.502c17.707 0 32.062 14.355 32.062 32.063v64.125h-64.125v32.063h-416.814c-17.634 0-32.063-14.427-32.063-32.063v-448.877c0-17.635 14.426-32.063 32.063-32.063h416.814v128.25h32.063c17.707 0 32.063 14.355 32.063 32.063v64.125h-64.125v32.063h32.063c17.707 0 32.063 14.355 32.063 32.063v64.125h-64.125v32.063h32.063zM288.563 327.337c35.324 0 63.96-28.636 63.96-63.96s-28.636-63.96-63.96-63.96c-35.324 0-63.96 28.636-63.96 63.96s28.636 63.96 63.96 63.96zM128.25-25.187h-32.063v448.877h32.063v-448.877zM384.752 71.001h-192.375v32.063c0 35.416 28.71 64.125 64.125 64.125v0h64.125c35.417 0 64.125-28.709 64.125-64.125v-32.063z" />
<glyph unicode="&#xe615;" d="M256 480c-141.385 0-256-114.615-256-256s114.615-256 256-256 256 114.615 256 256-114.615 256-256 256zM256 32c-106.039 0-192 85.961-192 192s85.961 192 192 192c106.039 0 192-85.961 192-192s-85.961-192-192-192z" />
</font>
</defs>
</svg>
