<?xml version="1.0" standalone="no"?>
<!DOCTYPE svg PUBLIC "-//W3C//DTD SVG 1.1//EN" "http://www.w3.org/Graphics/SVG/1.1/DTD/svg11.dtd" >
<svg xmlns="http://www.w3.org/2000/svg">
<metadata>Generated by IcoMoon</metadata>
<defs>
<font id="icomoon" horiz-adv-x="512">
<font-face units-per-em="512" ascent="485.12" descent="-26.88" />
<missing-glyph horiz-adv-x="512" />
<glyph unicode="&#x20;" d="" horiz-adv-x="204.8" />
<glyph unicode="&#xe600;" d="M512 165.578l-256 198.713-256-198.714v81.019l256 198.713 256-198.714zM448 172.8v-192h-128v128h-128v-128h-128v192l192 144z" />
<glyph unicode="&#xe601;" d="M160 268.8h64v-64h-64zM256 268.8h64v-64h-64zM352 268.8h64v-64h-64zM64 76.8h64v-64h-64zM160 76.8h64v-64h-64zM256 76.8h64v-64h-64zM160 172.8h64v-64h-64zM256 172.8h64v-64h-64zM352 172.8h64v-64h-64zM64 172.8h64v-64h-64zM416 460.8v-32h-64v32h-224v-32h-64v32h-64v-512h480v512h-64zM448-19.2h-416v352h416v-352z" />
<glyph unicode="&#xe602;" d="M449.248 460.8l33.622-285.78-37.74-4.44-30.026 255.22h-318.208l-30.026-255.22-37.74 4.44 33.621 285.78zM128 396.8h256v-32h-256zM128 332.8h256v-32h-256zM128 268.8h256v-32h-256zM128 204.8h256v-32h-256zM496 140.8h-480c-8.8 0-13.723-6.83-10.94-15.179l53.88-161.642c2.783-8.349 12.26-15.179 21.060-15.179h352c8.8 0 18.276 6.83 21.060 15.179l53.881 161.643c2.783 8.348-2.141 15.178-10.941 15.178zM320 76.8h-128v32h128v-32z" />
<glyph unicode="&#xe603;" d="M367.497 58.113c-9.476 1.494-9.692 27.327-9.692 27.327s27.844 27.328 33.912 64.076c16.326 0 26.407 39.069 10.082 52.814 0.681 14.47 20.984 113.588-81.799 113.588-102.782 0-82.479-99.118-81.799-113.588-16.327-13.745-6.244-52.814 10.081-52.814 6.067-36.748 33.913-64.076 33.913-64.076s-0.216-25.833-9.692-27.327c-30.524-4.816-144.503-54.658-144.503-109.313h384c0 54.655-113.979 104.497-144.503 109.313zM172.027 49.395c22.047 13.575 48.813 26.154 70.769 33.712-7.876 11.216-16.647 26.468-22.165 44.531-7.703 6.283-13.972 15.266-17.999 26.301-4.033 11.052-5.561 23.426-4.304 34.842 0.902 8.196 3.239 15.833 6.825 22.544-2.175 23.293-3.707 69.017 26.224 102.366 11.607 12.933 26.278 22.23 43.85 27.843-3.137 32.38-19.58 70.385-83.227 70.385-102.782 0-82.479-99.118-81.799-113.588-16.327-13.745-6.244-52.814 10.081-52.814 6.067-36.748 33.913-64.076 33.913-64.076s-0.216-25.833-9.692-27.327c-30.524-4.817-144.503-54.659-144.503-109.314h164.798c2.355 1.537 4.753 3.070 7.229 4.595z" />
<glyph unicode="&#xe604;" d="M488-51.2h-336c-13.255 0-24 10.745-24 24 0 34.431 14.534 76.102 38.879 111.471 20.346 29.559 45.342 51.81 72.339 64.805-11.899 10.822-22.147 24.013-30.254 39.061-13 24.131-19.873 52.024-19.873 80.664 0 39.803 13.102 77.411 36.893 105.895 24.832 29.73 58.221 46.104 94.016 46.104s69.184-16.374 94.017-46.105c23.79-28.484 36.893-66.091 36.893-105.895 0-28.64-6.872-56.533-19.872-80.664-8.107-15.048-18.355-28.239-30.255-39.061 26.997-12.995 51.993-35.246 72.339-64.805 24.344-35.368 38.878-77.039 38.878-111.47 0-13.255-10.745-24-24-24zM179.037-3.2h281.926c-4.613 19.67-14.26 41.192-27.381 60.255-20.727 30.113-46.588 49.811-72.819 55.463-11.053 2.382-18.944 12.155-18.944 23.462v17.146c0 8.63 4.633 16.595 12.135 20.861 29.739 16.916 48.956 54.133 48.956 94.813 0 57.346-37.192 104-82.909 104s-82.909-46.654-82.909-104c0-40.68 19.217-77.896 48.957-94.813 7.501-4.267 12.134-12.231 12.134-20.861v-17.146c0-11.307-7.892-21.080-18.944-23.462-26.231-5.652-52.092-25.35-72.82-55.463-13.123-19.063-22.768-40.585-27.382-60.255zM98.557 28.8h-47.52c4.614 19.67 14.259 41.192 27.38 60.255 20.728 30.113 46.589 49.811 72.82 55.463 11.053 2.382 18.944 12.155 18.944 23.462v17.146c0 8.63-4.633 16.595-12.134 20.861-29.74 16.917-48.957 54.133-48.957 94.813 0 57.346 37.192 104 82.909 104 3.127 0 6.213-0.226 9.251-0.651 13.179 14.667 28.117 26.587 44.321 35.502-16.596 8.616-34.75 13.149-53.571 13.149-35.795 0-69.184-16.374-94.017-46.105-23.79-28.484-36.892-66.092-36.892-105.895 0-28.64 6.872-56.533 19.873-80.664 8.107-15.048 18.355-28.238 30.254-39.061-26.997-12.995-51.993-35.246-72.339-64.805-24.345-35.368-38.879-77.039-38.879-111.47 0-13.255 10.745-24 24-24h66.193c0.738 15.513 3.599 31.706 8.364 48z" />
<glyph unicode="&#xe605;" d="M192 396.8c0 35.346 28.654 64 64 64s64-28.654 64-64c0-35.346-28.654-64-64-64-35.346 0-64 28.654-64 64zM327.765 340.565c0 35.346 28.654 64 64 64s64-28.654 64-64c0-35.346-28.654-64-64-64-35.346 0-64 28.654-64 64zM416 204.8c0 17.673 14.327 32 32 32s32-14.327 32-32c0-17.673-14.327-32-32-32-17.673 0-32 14.327-32 32zM359.765 69.035c0 17.673 14.327 32 32 32s32-14.327 32-32c0-17.673-14.327-32-32-32-17.673 0-32 14.327-32 32zM224.001 12.8c0 0 0 0 0 0 0 17.673 14.327 32 32 32 17.673 0 32-14.327 32-32 0 0 0 0 0 0 0-17.673-14.327-32-32-32-17.673 0-32 14.327-32 32zM88.236 69.035c0 0 0 0 0 0 0 17.673 14.327 32 32 32 17.673 0 32-14.327 32-32 0 0 0 0 0 0 0-17.673-14.327-32-32-32-17.673 0-32 14.327-32 32zM72.236 340.565c0 0 0 0 0 0 0 26.51 21.49 48 48 48 26.509 0 48-21.49 48-48 0 0 0 0 0 0 0-26.509-21.49-48-48-48-26.51 0-48 21.49-48 48zM28 204.8c0 19.882 16.117 36 36 36s36-16.118 36-36c0-19.882-16.118-36-36-36-19.883 0-36 16.118-36 36z" />
<glyph unicode="&#xe606;" d="M181.861 99.774l20.649 28.908-22.627 22.628-28.909-20.648c-5.361 2.997-11.102 5.387-17.133 7.096l-5.841 35.042h-32l-5.84-35.043c-6.031-1.709-11.772-4.099-17.133-7.096l-28.909 20.649-22.628-22.628 20.649-28.908c-2.997-5.36-5.387-11.103-7.096-17.133l-35.043-5.841v-32l35.043-5.841c1.709-6.030 4.099-11.772 7.096-17.133l-20.649-28.908 22.627-22.628 28.909 20.648c5.361-2.997 11.102-5.387 17.133-7.096l5.841-35.042h32l5.84 35.043c6.031 1.709 11.772 4.099 17.133 7.096l28.909-20.648 22.627 22.628-20.649 28.908c2.997 5.36 5.387 11.103 7.096 17.133l35.044 5.84v32l-35.043 5.841c-1.709 6.030-4.099 11.772-7.096 17.133zM112 28.8c-17.674 0-32 14.327-32 32s14.326 32 32 32 32-14.327 32-32-14.326-32-32-32zM512 268.8v32l-33.691 6.125c-0.621 4.023-1.416 7.989-2.362 11.895l28.779 18.55-12.246 29.564-33.472-7.234c-2.107 3.455-4.363 6.81-6.746 10.065l19.503 28.171-22.628 22.627-28.171-19.503c-3.256 2.383-6.61 4.638-10.065 6.747l7.234 33.472-29.564 12.247-18.55-28.779c-3.906 0.946-7.872 1.741-11.895 2.362l-6.126 33.691h-32l-6.126-33.691c-4.023-0.621-7.988-1.416-11.895-2.362l-18.549 28.779-29.564-12.246 7.234-33.472c-3.455-2.108-6.81-4.364-10.065-6.747l-28.171 19.503-22.627-22.627 19.503-28.171c-2.383-3.255-4.639-6.61-6.747-10.065l-33.472 7.234-12.246-29.564 28.779-18.55c-0.946-3.906-1.741-7.871-2.362-11.895l-33.692-6.126v-32l33.691-6.125c0.621-4.023 1.416-7.989 2.362-11.895l-28.779-18.55 12.246-29.564 33.472 7.234c2.108-3.455 4.364-6.809 6.747-10.065l-19.503-28.171 22.627-22.628 28.171 19.503c3.255-2.383 6.61-4.638 10.065-6.746l-7.234-33.472 29.564-12.246 18.551 28.779c3.905-0.946 7.871-1.741 11.894-2.362l6.126-33.692h32l6.126 33.691c4.022 0.621 7.988 1.416 11.895 2.362l18.55-28.779 29.564 12.246-7.234 33.472c3.455 2.108 6.81 4.363 10.065 6.746l28.171-19.503 22.628 22.628-19.503 28.171c2.383 3.256 4.638 6.61 6.746 10.065l33.472-7.234 12.246 29.565-28.779 18.55c0.946 3.906 1.741 7.871 2.362 11.895l33.691 6.125zM336 215.2c-38.439 0-69.6 31.161-69.6 69.6s31.16 69.6 69.6 69.6 69.6-31.161 69.6-69.6c0-38.439-31.16-69.6-69.6-69.6z" />
<glyph unicode="&#xe607;" d="M512 156.753v96.094l-73.387 12.231c-2.979 9.066-6.611 17.834-10.847 26.25l43.227 60.517-67.948 67.949-60.413-43.152c-8.455 4.277-17.269 7.944-26.384 10.951l-12.201 73.207h-96.094l-12.201-73.208c-9.115-3.007-17.929-6.674-26.383-10.951l-60.414 43.152-67.949-67.949 43.227-60.518c-4.235-8.415-7.867-17.183-10.846-26.249l-73.387-12.23v-96.094l73.559-12.26c2.98-8.984 6.605-17.674 10.821-26.015l-43.374-60.724 67.949-67.948 60.827 43.447c8.301-4.175 16.945-7.764 25.882-10.717l12.289-73.736h96.094l12.289 73.737c8.937 2.953 17.581 6.542 25.883 10.716l60.826-43.446 67.948 67.948-43.372 60.723c4.216 8.341 7.839 17.031 10.82 26.016l73.559 12.259zM256 140.8c-35.346 0-64 28.653-64 64 0 35.346 28.654 64 64 64 35.347 0 64-28.654 64-64 0-35.347-28.653-64-64-64z" />
<glyph unicode="&#xe608;" d="M224 172.8v224c-123.712 0-224-100.288-224-224s100.288-224 224-224 224 100.288 224 224c0 36.017-8.514 70.042-23.618 100.191l-200.382-100.191zM456.382 336.991c-36.776 73.408-112.687 123.809-200.382 123.809v-224l200.382 100.191z" />
<glyph unicode="&#xe609;" d="M64 12.8h448v-64h-512v512h64zM144 44.8c-26.51 0-48 21.49-48 48s21.49 48 48 48c1.414 0 2.811-0.074 4.194-0.193l51.596 85.993c-4.92 7.535-7.79 16.531-7.79 26.201 0 26.51 21.49 48 48 48 26.51 0 48-21.49 48-48 0-9.671-2.87-18.666-7.79-26.201l51.596-85.993c1.383 0.119 2.78 0.193 4.194 0.193 1.068 0 2.124-0.047 3.175-0.115l85.178 149.061c-5.268 7.704-8.353 17.018-8.353 27.055 0 26.51 21.49 48 48 48 26.51 0 48-21.49 48-48 0-26.51-21.49-48-48-48-1.070 0-2.124 0.047-3.175 0.116l-85.178-149.062c5.268-7.703 8.353-17.018 8.353-27.055 0-26.51-21.49-48-48-48-26.51 0-48 21.49-48 48 0 9.67 2.87 18.666 7.789 26.201l-51.595 85.992c-1.383-0.119-2.78-0.193-4.194-0.193s-2.811 0.073-4.194 0.193l-51.596-85.993c4.92-7.534 7.79-16.53 7.79-26.2 0-26.51-21.49-48-48-48z" />
<glyph unicode="&#xe60a;" d="M0 44.8h512v-64h-512zM64 172.8h64v-96h-64zM160 300.8h64v-224h-64zM256 204.8h64v-128h-64zM352 396.8h64v-320h-64z" />
<glyph unicode="&#xe60b;" d="M416 364.8v64h-320v-64h-96v-64c0-53.019 42.979-96 96-96 10.038 0 19.715 1.543 28.81 4.401 23.087-33.004 58.304-56.898 99.19-65.198v-99.203h-32c-35.347 0-64-28.653-64-64h256c0 35.347-28.653 64-64 64h-32v99.203c40.886 8.3 76.103 32.193 99.19 65.198 9.095-2.858 18.772-4.401 28.81-4.401 53.021 0 96 42.981 96 96v64h-96zM96 242.8c-31.981 0-58 26.019-58 58v32h58v-32c0-20.093 3.715-39.316 10.477-57.034-3.401-0.623-6.899-0.966-10.477-0.966zM474 300.8c0-31.981-26.019-58-58-58-3.578 0-7.076 0.343-10.477 0.966 6.762 17.718 10.477 36.941 10.477 57.034v32h58v-32z" />
<glyph unicode="&#xe60c;" d="M96-51.2h320l32 352h-384zM320 396.8v64h-128v-64h-160v-96l32 32h384l32-32v96h-160zM288 396.8h-64v32h64v-32z" />
<glyph unicode="&#xe60d;" d="M400 396.8h-288c-26.51 0-48-21.49-48-48v-16h384v16c0 26.51-21.49 48-48 48zM316.16 428.8l7.058-50.5h-134.436l7.057 50.5h120.321zM320 460.8h-128c-13.2 0-25.495-10.696-27.321-23.769l-9.357-66.962c-1.827-13.073 7.478-23.769 20.678-23.769h160c13.2 0 22.505 10.696 20.679 23.769l-9.357 66.962c-1.827 13.073-14.122 23.769-27.322 23.769v0zM408 300.8h-304c-17.6 0-30.696-14.341-29.103-31.869l26.206-288.263c1.593-17.527 17.297-31.868 34.897-31.868h240c17.6 0 33.304 14.341 34.897 31.868l26.205 288.263c1.594 17.528-11.502 31.869-29.102 31.869zM192 12.8h-48l-16 224h64v-224zM288 12.8h-64v224h64v-224zM368 12.8h-48v224h64l-16-224z" />
<glyph unicode="&#xe60e;" d="M224 63.545l-102.627 118.627 29.254 29.255 73.373-57.372 137.372 121.372 29.256-29.254zM415.886 396.8c0.039-0.033 0.081-0.075 0.114-0.115v-383.771c-0.033-0.039-0.075-0.081-0.114-0.114h-319.772c-0.040 0.033-0.081 0.075-0.114 0.114v383.772c0.033 0.040 0.075 0.081 0.115 0.114h-64.115v-384c0-35.2 28.8-64 64-64h320c35.2 0 64 28.8 64 64v384h-64.114zM320 396.8v32c0 17.673-14.327 32-32 32h-64c-17.673 0-32-14.327-32-32v-32h-64v-64h256v64h-64zM288 396.8h-64v32h64v-32z" />
<glyph unicode="&#xe60f;" d="M488 76.8h-8v104c0 30.878-25.121 56-56 56h-136v64h8c13.2 0 24 10.8 24 24v80c0 13.2-10.8 24-24 24h-80c-13.2 0-24-10.8-24-24v-80c0-13.2 10.8-24 24-24h8v-64h-136c-30.878 0-56-25.122-56-56v-104h-8c-13.2 0-24-10.8-24-24v-80c0-13.2 10.8-24 24-24h80c13.2 0 24 10.8 24 24v80c0 13.2-10.8 24-24 24h-8v96h128v-96h-8c-13.2 0-24-10.8-24-24v-80c0-13.2 10.8-24 24-24h80c13.2 0 24 10.8 24 24v80c0 13.2-10.8 24-24 24h-8v96h128v-96h-8c-13.2 0-24-10.8-24-24v-80c0-13.2 10.8-24 24-24h80c13.2 0 24 10.8 24 24v80c0 13.2-10.8 24-24 24zM96-19.2h-64v64h64v-64zM288-19.2h-64v64h64v-64zM224 332.8v64h64v-64h-64zM480-19.2h-64v64h64v-64z" />
<glyph unicode="&#xe610;" d="M432 460.8c44.182 0 80-35.817 80-80 0-18.010-5.955-34.629-16-48l-32-32-112 112 32 32c13.371 10.045 29.989 16 48 16zM32 92.8l-32-144 144 32 296 296-112 112-296-296zM357.789 279.011l-224-224-27.578 27.578 224 224 27.578-27.578z" />
<glyph unicode="&#xe612;" d="M384 140.8v64h-160v64h160v64l96-96zM352 172.8v-128h-160v-96l-192 96v416h352v-160h-32v128h-256l128-64v-288h128v96z" />
<glyph unicode="&#xe613;" d="M512 140.8v-192h-512v192h64v-128h384v128zM96 108.8h320v-64h-320zM103.576 178.067l13.849 62.482 312.416-69.248-13.849-62.482zM139.829 306.521l27.046 58.003 290.016-135.232-27.046-58.003zM495.861 280.062l-38.961-50.775-253.873 194.804 28.168 36.709h29.122z" />
<glyph unicode="&#xe614;" d="M480 332.8c17.673 0 32 14.327 32 32v64h-64v32h-416c-17.6 0-32-14.399-32-32v-448c0-17.6 14.398-32 32-32h416v128h32c17.673 0 32 14.327 32 32v64h-64v32h32c17.673 0 32 14.327 32 32v64h-64v32h32zM288 332.635c35.255 0 63.835-28.58 63.835-63.835s-28.58-63.835-63.835-63.835c-35.255 0-63.835 28.58-63.835 63.835s28.58 63.835 63.835 63.835zM128-19.2h-32v448h32v-448zM384 76.8h-192v32c0 35.347 28.654 64 64 64v0h64c35.348 0 64-28.653 64-64v-32z" />
</font>
</defs>
</svg>
